<svg width="599" height="455" viewBox="0 0 599 455" fill="none" xmlns="http://www.w3.org/2000/svg">
<path d="M428.5 188.883C421.5 119.383 365.5 70.3834 305 59.8834C241.8 58.2834 114 59.2168 59 59.8834V229.383M428.5 271.383C423.5 356.383 367.5 386.883 310.5 395.883H59V229.383M59 229.383H244" stroke="#1F2326" stroke-width="118"/>
<g filter="url(#filter0_i_0_1)">
<path d="M428.5 188.883C421.5 119.383 365.5 70.3834 305 59.8834C241.8 58.2834 114 59.2168 59 59.8834V229.383M428.5 271.383C423.5 356.383 367.5 386.883 310.5 395.883H59V229.383M59 229.383H244" stroke="white" stroke-width="62"/>
</g>
<circle cx="554.5" cy="396.5" r="44.5" fill="#1F2326"/>
<circle cx="554.5" cy="59.5" r="44.5" fill="#1F2326"/>
<defs>
<filter id="filter0_i_0_1" x="28" y="28.0001" width="436.447" height="402.883" filterUnits="userSpaceOnUse" color-interpolation-filters="sRGB">
<feFlood flood-opacity="0" result="BackgroundImageFix"/>
<feBlend mode="normal" in="SourceGraphic" in2="BackgroundImageFix" result="shape"/>
<feColorMatrix in="SourceAlpha" type="matrix" values="0 0 0 0 0 0 0 0 0 0 0 0 0 0 0 0 0 0 127 0" result="hardAlpha"/>
<feOffset dx="5" dy="4"/>
<feGaussianBlur stdDeviation="6"/>
<feComposite in2="hardAlpha" operator="arithmetic" k2="-1" k3="1"/>
<feColorMatrix type="matrix" values="0 0 0 0 0 0 0 0 0 0 0 0 0 0 0 0 0 0 0.25 0"/>
<feBlend mode="normal" in2="shape" result="effect1_innerShadow_0_1"/>
</filter>
</defs>
</svg>
